<svg xmlns="http://www.w3.org/2000/svg" height="24" viewBox="0 -960 960 960" width="24"><path d="M480-292.116q-70.86 0-122.41-45.5-51.551-45.5-63.897-114.5H108.078v-55.96h185.615q12.318-68.808 63.885-114.404 51.567-45.596 122.449-45.596t122.614 45.596q51.732 45.596 63.666 114.404h185.615v55.96H666.307q-11.961 69-63.704 114.5T480-292.116Zm.005-55.96q54.649 0 93.38-38.64 38.731-38.639 38.731-93.289 0-54.649-38.679-93.38-38.679-38.731-93.385-38.731t-93.341 38.679q-38.635 38.679-38.635 93.385t38.64 93.341q38.639 38.635 93.289 38.635Z"/></svg>