<svg xmlns="http://www.w3.org/2000/svg" height="20" viewBox="0 -960 960 960" width="20"><path d="M218.967-526.077q-19.608 0-33.652-14.454t-14.044-33.506v-166.732q0-19.572 14.219-33.766 14.22-14.194 33.829-14.194h167.1q19.608 0 33.652 14.194t14.044 33.766v166.732q0 19.052-14.22 33.506-14.219 14.454-33.828 14.454h-167.1Zm0 354.806q-19.608 0-33.652-14.219-14.044-14.22-14.044-33.829v-167.1q0-19.608 14.219-33.652 14.22-14.044 33.829-14.044h167.1q19.608 0 33.652 14.22 14.044 14.219 14.044 33.828v167.1q0 19.608-14.22 33.652-14.219 14.044-33.828 14.044h-167.1Zm355.07-354.806q-19.052 0-33.506-14.454t-14.454-33.506v-166.732q0-19.572 14.454-33.766 14.454-14.194 33.506-14.194h166.732q19.572 0 33.766 14.194 14.194 14.194 14.194 33.766v166.732q0 19.052-14.194 33.506t-33.766 14.454H574.037Zm0 354.806q-19.052 0-33.506-14.219-14.454-14.22-14.454-33.829v-167.1q0-19.608 14.454-33.652t33.506-14.044h166.732q19.572 0 33.766 14.22 14.194 14.219 14.194 33.828v167.1q0 19.608-14.194 33.652t-33.766 14.044H574.037ZM219.231-574.037h166.924v-166.732H219.231v166.732Zm354.806 0h166.732v-166.732H574.037v166.732Zm0 354.806h166.732v-166.924H574.037v166.924Zm-354.806 0h166.924v-166.924H219.231v166.924Zm354.806-354.806Zm0 187.882Zm-187.882 0Zm0-187.882Z"/></svg>