<svg xmlns="http://www.w3.org/2000/svg" height="20" viewBox="0 -960 960 960" width="20"><path d="m242.423-308.73 153.232-153.039q7.423-7.423 17.268-7.962 9.846-.538 17.461 7.195 7.808 7.872 7.962 17.972.154 10.099-7.962 17.64L264.616-261.848q-9.175 9.347-21.011 9.347-11.835 0-21.181-9.347l-81.769-81.768q-8-7.808-7.712-16.269.289-8.461 8.404-16.769 8.115-8.115 16.987-8.115 8.871 0 17.374 8.439l66.715 67.6Zm1-296.615 152.232-152.039q7.423-7.422 17.268-8.461 9.846-1.038 17.461 6.694 7.808 7.873 7.962 17.973.154 10.099-7.962 17.64L264.616-558.462q-9.175 9.346-21.011 9.346-11.835 0-21.181-9.346l-81.769-81.769q-8-7.807-7.212-16.768.789-8.962 8.904-17.269 8.115-8.115 16.987-8.115 8.871 0 17.05 8.115l67.039 68.923Zm310.653 297.536q-9.934 0-17.005-6.918T530-331.496q0-9.85 7.071-17.062 7.071-7.211 17.005-7.211h258.346q9.742 0 16.813 7.014 7.071 7.014 7.071 16.865 0 9.851-7.071 16.966t-16.813 7.115H554.076Zm0-296.614q-9.934 0-17.005-6.918T530-628.11q0-9.851 7.071-17.062t17.005-7.211h258.346q9.742 0 16.813 7.014 7.071 7.014 7.071 16.865 0 9.85-7.071 16.966-7.071 7.115-16.813 7.115H554.076Z"/></svg>