<svg xmlns="http://www.w3.org/2000/svg" height="20" viewBox="0 -960 960 960" width="20"><path d="M479.752-699q-31.713 0-53.848-22.383-22.134-22.382-22.134-54.096 0-31.713 22.382-53.848 22.382-22.134 54.096-22.134 31.713 0 53.848 22.382 22.134 22.383 22.134 54.096 0 31.714-22.382 53.848Q511.466-699 479.752-699Zm-99.559 550.462v-427.809H194.854q-9.911 0-17.132-7.014-7.221-7.015-7.221-16.865 0-9.658 7.071-16.87 7.071-7.211 17.006-7.211h571.037q9.742 0 16.813 7.014 7.071 7.014 7.071 16.673 0 9.85-7.071 17.062-7.071 7.211-16.813 7.211H579.807v427.929q0 9.514-7.363 16.735-7.362 7.221-17.535 7.221-8.64 0-15.851-6.721-7.212-6.721-8.212-15.355l-8-183.885h-84.692l-8 183.885q-1 8.653-8.363 15.365-7.362 6.711-17.535 6.711-9.94 0-17.001-7.071-7.062-7.071-7.062-17.005Z"/></svg>