<svg xmlns="http://www.w3.org/2000/svg" height="20" viewBox="0 -960 960 960" width="20"><path d="M538.365-369.231q14.596 0 23.999-9.404 9.404-9.404 9.404-24t-9.404-24q-9.403-9.403-23.999-9.403-14.596 0-24 9.403-9.404 9.404-9.404 24t9.404 24q9.404 9.404 24 9.404Zm.371-111.577q8.609 0 14.378-5.91 5.768-5.909 7.193-14.8 2-13.559 7.384-22.995 5.385-9.437 21.308-23.679 28.885-26.423 39.885-44.731 11-18.308 11-39.824 0-41.791-28.25-68.118-28.25-26.327-73.629-26.327-28.424 0-52.03 13.58-23.606 13.581-38.437 37.228-3.538 6.577-.559 14.868 2.979 8.291 10.905 12.208 7.077 2.539 15 .904 7.923-1.635 13.077-9.404 8.769-12.538 22.673-20.058 13.904-7.519 29.675-7.519 25.486 0 41.896 14.866t16.41 38.019q0 15.154-9.077 28.423-9.077 13.27-41.231 42.154-13.807 13.5-20.192 27.212-6.384 13.711-8.384 32.489-1 8.745 5.319 15.08 6.319 6.334 15.686 6.334ZM310.269-260.001q-25.137 0-42.703-17.566-17.565-17.566-17.565-42.703v-455.383q0-25.137 17.565-42.703 17.566-17.566 42.703-17.566h455.383q25.138 0 42.703 17.566 17.566 17.566 17.566 42.703v455.383q0 25.137-17.566 42.703-17.565 17.566-42.703 17.566H310.269Zm0-47.961h455.383q4.616 0 8.462-3.846 3.847-3.846 3.847-8.462v-455.383q0-4.616-3.847-8.462-3.846-3.847-8.462-3.847H310.269q-4.615 0-8.462 3.847-3.846 3.846-3.846 8.462v455.383q0 4.616 3.846 8.462 3.847 3.846 8.462 3.846ZM194.348-144.08q-25.138 0-42.703-17.565-17.566-17.566-17.566-42.703v-479.459q0-9.733 7.001-16.809 7.001-7.075 16.769-7.075 9.767 0 16.979 7.075 7.211 7.076 7.211 16.809v479.459q0 4.615 3.847 8.462 3.846 3.846 8.462 3.846h479.459q9.732 0 16.808 7.015 7.076 7.016 7.076 16.659 0 9.864-7.076 17.075-7.076 7.211-16.808 7.211H194.348Zm103.613-643.882v480V-787.962Z"/></svg>