<svg xmlns="http://www.w3.org/2000/svg" height="24" viewBox="0 -960 960 960" width="24"><path d="M479.965-739.5q-5.465 0-8.965-3.525T467.5-752v-100q0-5.45 3.535-9.225 3.535-3.775 9-3.775t9.215 3.775Q493-857.45 493-852v100q0 5.45-3.785 8.975-3.785 3.525-9.25 3.525ZM663-663q-3.5-3.5-3-8.75t4-9.25l69-71q3.767-4.5 9.133-4.5 5.367 0 10.084 4.717Q756.5-747.5 756.5-743q0 4.5-4.5 9l-71 71q-4.5 4.5-9 4.5t-9-4.5Zm89 195.5q-5.45 0-8.975-3.535-3.525-3.535-3.525-9t3.525-9.215Q746.55-493 752-493h100q5.45 0 9.225 3.785 3.775 3.785 3.775 9.25T861.225-471q-3.775 3.5-9.225 3.5H752Zm-272.035 372q-5.465 0-8.965-3.525T467.5-108v-99q0-5.45 3.535-9.225 3.535-3.775 9-3.775t9.215 3.775Q493-212.45 493-207v99q0 5.45-3.785 8.975-3.785 3.525-9.25 3.525ZM280-663l-72-70q-4.5-3.674-4.5-9.087T208-752q4.5-3.5 9.667-3.5 5.166 0 8.333 3.5l72 72q3.5 3.167 3.75 8.333.25 5.167-3.05 8.667-4.145 3.5-9.173 3.5-5.027 0-9.527-3.5Zm454 455-70-71q-3.5-4-4-9.25t2.8-8.75q3.3-3.5 8.75-3.5T681-296l71.5 70q3.5 3.5 3.25 8.5t-4.054 9.5q-3.696 4.5-9.113 4.5-5.416 0-8.583-4.5ZM108-467.5q-5.45 0-8.975-3.535-3.525-3.535-3.525-9t3.525-9.215Q102.55-493 108-493h100q5.45 0 9.225 3.785 3.775 3.785 3.775 9.25T217.225-471q-3.775 3.5-9.225 3.5H108ZM209-208q-3.5-4.5-4-9.5t3-8.5l70-70q4.5-4.5 9.25-4.5t8.75 4.283q4.5 4.717 4.5 9.717 0 5-4.5 9.5l-69 69q-4.5 4.5-9.667 4.5-5.166 0-8.333-4.5Zm271.235-85.5Q402.5-293.5 348-347.765q-54.5-54.264-54.5-132 0-77.735 54.265-132.485 54.264-54.75 132-54.75 77.735 0 132.485 54.515Q667-557.971 667-480.235 667-402.5 612.485-348q-54.514 54.5-132.25 54.5Z"/></svg>