<svg xmlns="http://www.w3.org/2000/svg" height="20" viewBox="0 -960 960 960" width="20"><path d="M480-250.001q95.833 0 162.916-67.083T709.999-480q0-83.712-51.769-146.683-51.768-62.97-133.729-77.393-13.235-2-23.867 7.076-10.633 9.076-10.633 22.578v198.268L348.386-334.538q-9.423 9.557-8.539 22.894.885 13.336 12.308 21.49 26.692 19.653 59.673 29.903T480-250.001Zm.092 125.923q-73.152 0-138.066-27.825-64.914-27.824-113.652-76.595-48.738-48.77-76.517-113.555-27.779-64.785-27.779-137.855 0-74.152 27.825-138.566 27.824-64.414 76.595-113.152 48.77-48.738 113.555-76.517 64.785-27.779 137.855-27.779 74.152 0 138.566 27.825 64.414 27.824 113.152 76.595 48.738 48.77 76.517 113.055 27.779 64.285 27.779 138.355 0 73.152-27.825 138.066-27.824 64.914-76.595 113.652-48.77 48.738-113.055 76.517-64.285 27.779-138.355 27.779Zm-.105-47.96q127.898 0 217.936-90.026 90.039-90.026 90.039-217.923 0-127.898-90.026-217.936-90.026-90.039-217.923-90.039-127.898 0-217.936 90.026-90.039 90.026-90.039 217.923 0 127.898 90.026 217.936 90.026 90.039 217.923 90.039ZM480-480Z"/></svg>